<svg xmlns="http://www.w3.org/2000/svg" viewBox="0 0 24 24" class="h-8 w-8">
  <!-- Main outline with 40/60 proportion -->
  <path d="M8 6L4 11L12 19L20 11L16 6L8 6Z" fill="#a0d2e7" stroke="#48a3c6" stroke-width="0.5" />

  <!-- Top table (flat surface) -->
  <path d="M8 6L16 6L16 6L8 6Z" fill="#d8faff" stroke="#48a3c6" stroke-width="0.3" />

  <!-- Left crown facet -->
  <path d="M8 6L4 11L8 11L8 6Z" fill="#9eeaf9" stroke="#48a3c6" stroke-width="0.3" />

  <!-- Right crown facet -->
  <path d="M16 6L20 11L16 11L16 6Z" fill="#9eeaf9" stroke="#48a3c6" stroke-width="0.3" />

  <!-- Left pavilion facet -->
  <path d="M4 11L8 11L12 19L4 11Z" fill="#77c2e0" stroke="#48a3c6" stroke-width="0.3" />

  <!-- Right pavilion facet -->
  <path d="M20 11L16 11L12 19L20 11Z" fill="#77c2e0" stroke="#48a3c6" stroke-width="0.3" />

  <!-- Center girdle facet -->
  <path d="M8 11L16 11L12 13L8 11Z" fill="#b6e3f4" stroke="#48a3c6" stroke-width="0.3" />

  <!-- Table reflection highlight -->
  <path d="M9 6.5L15 6.5L14 7.5L10 7.5Z" fill="white" opacity="0.7" />

  <!-- Sparkle highlights -->
  <circle cx="10" cy="8" r="0.4" fill="white" />
  <circle cx="14" cy="9" r="0.3" fill="white" />
</svg>